<?xml version="1.0" standalone="no"?>
<!DOCTYPE svg PUBLIC "-//W3C//DTD SVG 20010904//EN"
 "http://www.w3.org/TR/2001/REC-SVG-20010904/DTD/svg10.dtd">
<svg version="1.0" xmlns="http://www.w3.org/2000/svg"
 width="512.000000pt" height="512.000000pt" viewBox="0 0 512.000000 512.000000"
 preserveAspectRatio="xMidYMid meet">

<g transform="translate(0.000000,512.000000) scale(0.100000,-0.100000)"
fill="#000000" stroke="none">
<path d="M2933 4136 c-20 -9 -44 -33 -60 -61 -93 -157 -236 -318 -377 -424
-108 -82 -184 -124 -326 -182 -170 -68 -259 -139 -315 -249 -29 -58 -55 -162
-55 -226 l0 -41 -122 -5 c-229 -10 -398 -92 -514 -250 -131 -178 -129 -421 3
-596 18 -23 33 -44 33 -47 0 -3 -13 -5 -29 -5 -97 0 -294 -100 -374 -189 -163
-181 -186 -422 -61 -619 98 -153 265 -249 475 -273 53 -6 596 -9 1420 -7
l1334 4 75 22 c115 36 187 79 271 162 112 110 159 218 159 359 -1 131 -34 222
-119 328 -82 101 -243 192 -370 209 -28 4 -51 9 -51 11 0 3 13 22 29 42 119
151 136 389 38 551 -87 146 -263 264 -429 288 l-52 7 -13 95 c-37 277 -165
604 -380 966 -30 50 -64 101 -76 113 -30 28 -75 34 -114 17z m80 -263 c57 -95
172 -330 220 -453 84 -213 124 -408 114 -551 l-5 -79 56 0 c155 -1 291 -46
383 -128 25 -22 61 -69 80 -104 32 -58 34 -69 34 -153 0 -71 -5 -100 -22 -137
-29 -63 -102 -140 -175 -184 -65 -40 -78 -57 -78 -108 0 -25 7 -40 26 -55 23
-18 41 -21 128 -21 200 -1 331 -44 428 -141 74 -74 103 -144 103 -249 0 -72
-4 -93 -27 -140 -34 -70 -113 -149 -183 -184 -114 -58 -42 -56 -1530 -56 -904
0 -1385 4 -1415 11 -123 28 -242 117 -296 220 -26 48 -29 64 -29 149 0 80 4
103 24 143 40 81 104 142 194 187 93 45 168 59 320 60 90 0 100 2 122 25 27
26 33 72 15 105 -5 10 -35 33 -65 50 -74 42 -138 108 -172 178 -24 50 -28 68
-28 147 1 73 5 99 23 136 50 102 141 178 263 220 55 19 92 23 267 27 111 2
202 5 202 7 0 1 -7 45 -14 98 -35 230 32 340 258 427 193 75 344 171 495 315
77 73 169 181 216 253 15 23 29 42 31 42 1 0 18 -26 37 -57z"/>
</g>
</svg>
